<svg width="25" height="25" viewBox="0 0 25 25" fill="none" xmlns="http://www.w3.org/2000/svg">
<mask id="mask0_4_127" style="mask-type:alpha" maskUnits="userSpaceOnUse" x="0" y="0" width="25" height="25">
<rect x="0.5" y="0.5" width="24" height="24" fill="#D9D9D9"/>
</mask>
<g mask="url(#mask0_4_127)">
<path d="M8.50001 11.3846C8.74487 11.3846 8.95352 11.2984 9.12596 11.126C9.29839 10.9535 9.38461 10.7449 9.38461 10.5C9.38461 10.2551 9.29839 10.0465 9.12596 9.87406C8.95352 9.70162 8.74487 9.61541 8.50001 9.61541C8.25514 9.61541 8.04649 9.70162 7.87406 9.87406C7.70162 10.0465 7.61541 10.2551 7.61541 10.5C7.61541 10.7449 7.70162 10.9535 7.87406 11.126C8.04649 11.2984 8.25514 11.3846 8.50001 11.3846ZM12.5 11.3846C12.7449 11.3846 12.9535 11.2984 13.126 11.126C13.2984 10.9535 13.3846 10.7449 13.3846 10.5C13.3846 10.2551 13.2984 10.0465 13.126 9.87406C12.9535 9.70162 12.7449 9.61541 12.5 9.61541C12.2551 9.61541 12.0465 9.70162 11.8741 9.87406C11.7016 10.0465 11.6154 10.2551 11.6154 10.5C11.6154 10.7449 11.7016 10.9535 11.8741 11.126C12.0465 11.2984 12.2551 11.3846 12.5 11.3846ZM16.5 11.3846C16.7449 11.3846 16.9535 11.2984 17.126 11.126C17.2984 10.9535 17.3846 10.7449 17.3846 10.5C17.3846 10.2551 17.2984 10.0465 17.126 9.87406C16.9535 9.70162 16.7449 9.61541 16.5 9.61541C16.2551 9.61541 16.0465 9.70162 15.8741 9.87406C15.7016 10.0465 15.6154 10.2551 15.6154 10.5C15.6154 10.7449 15.7016 10.9535 15.8741 11.126C16.0465 11.2984 16.2551 11.3846 16.5 11.3846ZM3.00003 21.5384V4.80773C3.00003 4.3026 3.17503 3.87503 3.52503 3.52503C3.87503 3.17503 4.3026 3.00003 4.80773 3.00003H20.1923C20.6974 3.00003 21.125 3.17503 21.475 3.52503C21.825 3.87503 22 4.3026 22 4.80773V16.1923C22 16.6974 21.825 17.125 21.475 17.475C21.125 17.825 20.6974 18 20.1923 18H6.53848L3.00003 21.5384ZM5.90003 16.5H20.1923C20.2692 16.5 20.3397 16.468 20.4039 16.4039C20.468 16.3397 20.5 16.2692 20.5 16.1923V4.80773C20.5 4.7308 20.468 4.66027 20.4039 4.59616C20.3397 4.53206 20.2692 4.50001 20.1923 4.50001H4.80773C4.7308 4.50001 4.66027 4.53206 4.59616 4.59616C4.53206 4.66027 4.50001 4.7308 4.50001 4.80773V17.8846L5.90003 16.5Z" fill="white"/>
</g>
</svg>
