<svg width="42" height="42" viewBox="0 0 42 42" fill="none" xmlns="http://www.w3.org/2000/svg">
<mask id="mask0_4_165" style="mask-type:alpha" maskUnits="userSpaceOnUse" x="0" y="0" width="42" height="42">
<rect width="42" height="42" fill="#D9D9D9"/>
</mask>
<g mask="url(#mask0_4_165)">
<path d="M21 20.4615C19.3156 20.4615 17.8737 19.8618 16.6742 18.6624C15.4747 17.4629 14.875 16.021 14.875 14.3366C14.875 12.6523 15.4747 11.2103 16.6742 10.0109C17.8737 8.81141 19.3156 8.21167 21 8.21167C22.6843 8.21167 24.1262 8.81141 25.3257 10.0109C26.5252 11.2103 27.1249 12.6523 27.1249 14.3366C27.1249 16.021 26.5252 17.4629 25.3257 18.6624C24.1262 19.8618 22.6843 20.4615 21 20.4615ZM7.875 33.7884V29.8981C7.875 29.0411 8.10778 28.2474 8.57334 27.5171C9.03887 26.7869 9.66089 26.2254 10.4394 25.8328C12.1692 24.9847 13.9142 24.3486 15.6743 23.9246C17.4344 23.5006 19.2096 23.2886 21 23.2886C22.7903 23.2886 24.5656 23.5006 26.3256 23.9246C28.0857 24.3486 29.8307 24.9847 31.5605 25.8328C32.339 26.2254 32.961 26.7869 33.4266 27.5171C33.8921 28.2474 34.1249 29.0411 34.1249 29.8981V33.7884H7.875ZM10.5 31.1635H31.5V29.8981C31.5 29.5436 31.3973 29.2155 31.192 28.9137C30.9867 28.612 30.708 28.3657 30.3557 28.175C28.848 27.4324 27.3107 26.8698 25.7437 26.4873C24.1767 26.1048 22.5954 25.9135 21 25.9135C19.4045 25.9135 17.8232 26.1048 16.2562 26.4873C14.6892 26.8698 13.1519 27.4324 11.6442 28.175C11.2919 28.3657 11.0132 28.612 10.8079 28.9137C10.6026 29.2155 10.5 29.5436 10.5 29.8981V31.1635ZM21 17.8366C21.9625 17.8366 22.7864 17.4939 23.4718 16.8085C24.1572 16.1231 24.5 15.2991 24.5 14.3366C24.5 13.3741 24.1572 12.5502 23.4718 11.8648C22.7864 11.1793 21.9625 10.8366 21 10.8366C20.0375 10.8366 19.2135 11.1793 18.5281 11.8648C17.8427 12.5502 17.5 13.3741 17.5 14.3366C17.5 15.2991 17.8427 16.1231 18.5281 16.8085C19.2135 17.4939 20.0375 17.8366 21 17.8366Z" fill="white"/>
</g>
</svg>
