<svg width="42" height="42" viewBox="0 0 42 42" fill="none" xmlns="http://www.w3.org/2000/svg">
<mask id="mask0_25_11" style="mask-type:alpha" maskUnits="userSpaceOnUse" x="0" y="0" width="42" height="42">
<rect width="42" height="42" fill="#D9D9D9"/>
</mask>
<g mask="url(#mask0_25_11)">
<path d="M13.3438 11.2L18.2438 4.85625C18.5938 4.38958 19.0094 4.04688 19.4906 3.82812C19.9719 3.60938 20.475 3.5 21 3.5C21.525 3.5 22.0281 3.60938 22.5094 3.82812C22.9906 4.04688 23.4063 4.38958 23.7563 4.85625L28.6563 11.2L36.0938 13.6938C36.8521 13.9271 37.45 14.3573 37.8875 14.9844C38.325 15.6115 38.5438 16.3042 38.5438 17.0625C38.5438 17.4125 38.4927 17.7625 38.3906 18.1125C38.2885 18.4625 38.1208 18.7979 37.8875 19.1188L33.075 25.9438L33.25 33.1188C33.2792 34.1396 32.9438 35 32.2438 35.7C31.5438 36.4 30.7271 36.75 29.7938 36.75C29.7354 36.75 29.4146 36.7063 28.8313 36.6188L21 34.4313L13.1688 36.6188C13.0229 36.6771 12.8625 36.7135 12.6875 36.7281C12.5125 36.7427 12.3521 36.75 12.2063 36.75C11.2729 36.75 10.4563 36.4 9.75625 35.7C9.05625 35 8.72083 34.1396 8.75 33.1188L8.925 25.9L4.15625 19.1188C3.92292 18.7979 3.75521 18.4625 3.65313 18.1125C3.55104 17.7625 3.5 17.4125 3.5 17.0625C3.5 16.3333 3.71146 15.6552 4.13438 15.0281C4.55729 14.401 5.14792 13.9563 5.90625 13.6938L13.3438 11.2ZM15.4875 14.2188L7 17.0188L12.425 24.85L12.25 33.2063L21 30.8L29.75 33.25L29.575 24.85L35 17.1062L26.5125 14.2188L21 7L15.4875 14.2188Z" fill="#1C1B1F"/>
</g>
</svg>
