<svg width="86" height="86" viewBox="0 0 86 86" fill="none" xmlns="http://www.w3.org/2000/svg">
<mask id="mask0_25_11" style="mask-type:alpha" maskUnits="userSpaceOnUse" x="0" y="0" width="86" height="86">
<rect width="86" height="86" fill="#D9D9D9"/>
</mask>
<g mask="url(#mask0_25_11)">
<path d="M27.3229 22.9333L37.3562 9.94371C38.0729 8.98815 38.924 8.28642 39.9094 7.8385C40.8948 7.39058 41.925 7.16663 43 7.16663C44.075 7.16663 45.1052 7.39058 46.0906 7.8385C47.076 8.28642 47.9271 8.98815 48.6437 9.94371L58.6771 22.9333L73.9062 28.0395C75.459 28.5173 76.6833 29.3982 77.5792 30.6823C78.475 31.9663 78.9229 33.3847 78.9229 34.9375C78.9229 35.6541 78.8184 36.3708 78.6094 37.0875C78.4003 37.8041 78.0569 38.4909 77.5792 39.1479L67.725 53.1229L68.0833 67.8145C68.1431 69.9048 67.4562 71.6666 66.0229 73.1C64.5896 74.5333 62.9174 75.25 61.0062 75.25C60.8868 75.25 60.2299 75.1604 59.0354 74.9812L43 70.502L26.9646 74.9812C26.666 75.1007 26.3375 75.1753 25.9792 75.2052C25.6208 75.235 25.2924 75.25 24.9937 75.25C23.0826 75.25 21.4104 74.5333 19.9771 73.1C18.5437 71.6666 17.8569 69.9048 17.9167 67.8145L18.275 53.0333L8.51041 39.1479C8.03264 38.4909 7.68923 37.8041 7.48021 37.0875C7.27118 36.3708 7.16666 35.6541 7.16666 34.9375C7.16666 33.4444 7.59965 32.0559 8.46562 30.7718C9.33159 29.4878 10.541 28.577 12.0937 28.0395L27.3229 22.9333ZM31.7125 29.1145L14.3333 34.8479L25.4417 50.8833L25.0833 67.9937L43 63.0666L60.9167 68.0833L60.5583 50.8833L71.6667 35.027L54.2875 29.1145L43 14.3333L31.7125 29.1145Z" fill="#1C1B1F"/>
</g>
</svg>
