<svg width="86" height="86" viewBox="0 0 86 86" fill="none" xmlns="http://www.w3.org/2000/svg">
<mask id="mask0_25_17" style="mask-type:alpha" maskUnits="userSpaceOnUse" x="0" y="0" width="86" height="86">
<rect width="86" height="86" fill="#D9D9D9"/>
</mask>
<g mask="url(#mask0_25_17)">
<path d="M31.7125 56.0792L63.6042 47.6584C64.5 47.4195 65.1719 46.8671 65.6198 46.0011C66.0677 45.1351 66.1722 44.2542 65.9333 43.3584C65.6945 42.4625 65.1719 41.7907 64.3656 41.3427C63.5594 40.8948 62.7084 40.7903 61.8125 41.0292L53.0334 43.3584L38.7 29.9209L33.6834 31.175L42.2834 46.225L33.6834 48.375L29.2042 44.9709L25.8 45.8667L31.7125 56.0792ZM71.6667 71.6667H14.3334C12.3625 71.6667 10.6754 70.965 9.2719 69.5615C7.86842 68.158 7.16669 66.4709 7.16669 64.5V50.1667C9.13752 50.1667 10.8247 49.465 12.2281 48.0615C13.6316 46.658 14.3334 44.9709 14.3334 43C14.3334 41.0292 13.6316 39.3421 12.2281 37.9386C10.8247 36.5351 9.13752 35.8334 7.16669 35.8334V21.5C7.16669 19.5292 7.86842 17.8421 9.2719 16.4386C10.6754 15.0351 12.3625 14.3334 14.3334 14.3334H71.6667C73.6375 14.3334 75.3247 15.0351 76.7281 16.4386C78.1316 17.8421 78.8334 19.5292 78.8334 21.5V64.5C78.8334 66.4709 78.1316 68.158 76.7281 69.5615C75.3247 70.965 73.6375 71.6667 71.6667 71.6667ZM71.6667 64.5V21.5H14.3334V30.6375C16.5431 31.9514 18.29 33.6983 19.574 35.8782C20.858 38.058 21.5 40.432 21.5 43C21.5 45.5681 20.858 47.9421 19.574 50.1219C18.29 52.3018 16.5431 54.0486 14.3334 55.3625V64.5H71.6667Z" fill="#1C1B1F"/>
</g>
</svg>
