<svg width="42" height="42" viewBox="0 0 42 42" fill="none" xmlns="http://www.w3.org/2000/svg">
<mask id="mask0_25_17" style="mask-type:alpha" maskUnits="userSpaceOnUse" x="0" y="0" width="42" height="42">
<rect width="42" height="42" fill="#D9D9D9"/>
</mask>
<g mask="url(#mask0_25_17)">
<path d="M15.4875 27.3875L31.0625 23.275C31.5 23.1583 31.8281 22.8885 32.0469 22.4656C32.2656 22.0427 32.3167 21.6125 32.2 21.175C32.0833 20.7375 31.8281 20.4094 31.4344 20.1906C31.0406 19.9719 30.625 19.9208 30.1875 20.0375L25.9 21.175L18.9 14.6125L16.45 15.225L20.65 22.575L16.45 23.625L14.2625 21.9625L12.6 22.4L15.4875 27.3875ZM35 35H7C6.0375 35 5.21354 34.6573 4.52813 33.9719C3.84271 33.2865 3.5 32.4625 3.5 31.5V24.5C4.4625 24.5 5.28646 24.1573 5.97187 23.4719C6.65729 22.7865 7 21.9625 7 21C7 20.0375 6.65729 19.2135 5.97187 18.5281C5.28646 17.8427 4.4625 17.5 3.5 17.5V10.5C3.5 9.5375 3.84271 8.71354 4.52813 8.02813C5.21354 7.34271 6.0375 7 7 7H35C35.9625 7 36.7865 7.34271 37.4719 8.02813C38.1573 8.71354 38.5 9.5375 38.5 10.5V31.5C38.5 32.4625 38.1573 33.2865 37.4719 33.9719C36.7865 34.6573 35.9625 35 35 35ZM35 31.5V10.5H7V14.9625C8.07917 15.6042 8.93229 16.4573 9.55938 17.5219C10.1865 18.5865 10.5 19.7458 10.5 21C10.5 22.2542 10.1865 23.4135 9.55938 24.4781C8.93229 25.5427 8.07917 26.3958 7 27.0375V31.5H35Z" fill="#1C1B1F"/>
</g>
</svg>
