<svg width="42" height="42" viewBox="0 0 42 42" fill="none" xmlns="http://www.w3.org/2000/svg">
<mask id="mask0_26_29" style="mask-type:alpha" maskUnits="userSpaceOnUse" x="0" y="0" width="42" height="42">
<rect width="42" height="42" fill="#D9D9D9"/>
</mask>
<g mask="url(#mask0_26_29)">
<path d="M7 38.5V19.25H3.5V8.75H12.6C12.4542 8.4875 12.3594 8.21042 12.3156 7.91875C12.2719 7.62708 12.25 7.32083 12.25 7C12.25 5.54167 12.7604 4.30208 13.7812 3.28125C14.8021 2.26042 16.0417 1.75 17.5 1.75C18.1708 1.75 18.7979 1.87396 19.3812 2.12188C19.9646 2.36979 20.5042 2.7125 21 3.15C21.4958 2.68333 22.0354 2.33333 22.6187 2.1C23.2021 1.86667 23.8292 1.75 24.5 1.75C25.9583 1.75 27.1979 2.26042 28.2188 3.28125C29.2396 4.30208 29.75 5.54167 29.75 7C29.75 7.32083 29.7208 7.61979 29.6625 7.89687C29.6042 8.17396 29.5167 8.45833 29.4 8.75H38.5V19.25H35V38.5H7ZM24.5 5.25C24.0042 5.25 23.5885 5.41771 23.2531 5.75313C22.9177 6.08854 22.75 6.50417 22.75 7C22.75 7.49583 22.9177 7.91146 23.2531 8.24688C23.5885 8.58229 24.0042 8.75 24.5 8.75C24.9958 8.75 25.4115 8.58229 25.7469 8.24688C26.0823 7.91146 26.25 7.49583 26.25 7C26.25 6.50417 26.0823 6.08854 25.7469 5.75313C25.4115 5.41771 24.9958 5.25 24.5 5.25ZM15.75 7C15.75 7.49583 15.9177 7.91146 16.2531 8.24688C16.5885 8.58229 17.0042 8.75 17.5 8.75C17.9958 8.75 18.4115 8.58229 18.7469 8.24688C19.0823 7.91146 19.25 7.49583 19.25 7C19.25 6.50417 19.0823 6.08854 18.7469 5.75313C18.4115 5.41771 17.9958 5.25 17.5 5.25C17.0042 5.25 16.5885 5.41771 16.2531 5.75313C15.9177 6.08854 15.75 6.50417 15.75 7ZM7 12.25V15.75H19.25V12.25H7ZM19.25 35V19.25H10.5V35H19.25ZM22.75 35H31.5V19.25H22.75V35ZM35 15.75V12.25H22.75V15.75H35Z" fill="#1C1B1F"/>
</g>
</svg>
