<svg width="86" height="86" viewBox="0 0 86 86" fill="none" xmlns="http://www.w3.org/2000/svg">
<mask id="mask0_26_29" style="mask-type:alpha" maskUnits="userSpaceOnUse" x="0" y="0" width="86" height="86">
<rect width="86" height="86" fill="#D9D9D9"/>
</mask>
<g mask="url(#mask0_26_29)">
<path d="M14.3333 78.8334V39.4167H7.16666V17.9167H25.8C25.5014 17.3792 25.3073 16.8118 25.2177 16.2146C25.1281 15.6174 25.0833 14.9903 25.0833 14.3334C25.0833 11.3473 26.1285 8.80907 28.2187 6.71879C30.309 4.62851 32.8472 3.58337 35.8333 3.58337C37.2069 3.58337 38.491 3.83719 39.6854 4.34483C40.8799 4.85247 41.9847 5.55421 43 6.45004C44.0153 5.49449 45.1201 4.77782 46.3146 4.30004C47.509 3.82226 48.7931 3.58337 50.1667 3.58337C53.1528 3.58337 55.691 4.62851 57.7812 6.71879C59.8715 8.80907 60.9167 11.3473 60.9167 14.3334C60.9167 14.9903 60.8569 15.6025 60.7375 16.1698C60.618 16.7372 60.4389 17.3195 60.2 17.9167H78.8333V39.4167H71.6667V78.8334H14.3333ZM50.1667 10.75C49.1514 10.75 48.3003 11.0934 47.6135 11.7802C46.9267 12.4671 46.5833 13.3181 46.5833 14.3334C46.5833 15.3487 46.9267 16.1997 47.6135 16.8865C48.3003 17.5733 49.1514 17.9167 50.1667 17.9167C51.1819 17.9167 52.033 17.5733 52.7198 16.8865C53.4066 16.1997 53.75 15.3487 53.75 14.3334C53.75 13.3181 53.4066 12.4671 52.7198 11.7802C52.033 11.0934 51.1819 10.75 50.1667 10.75ZM32.25 14.3334C32.25 15.3487 32.5934 16.1997 33.2802 16.8865C33.967 17.5733 34.8181 17.9167 35.8333 17.9167C36.8486 17.9167 37.6997 17.5733 38.3865 16.8865C39.0733 16.1997 39.4167 15.3487 39.4167 14.3334C39.4167 13.3181 39.0733 12.4671 38.3865 11.7802C37.6997 11.0934 36.8486 10.75 35.8333 10.75C34.8181 10.75 33.967 11.0934 33.2802 11.7802C32.5934 12.4671 32.25 13.3181 32.25 14.3334ZM14.3333 25.0834V32.25H39.4167V25.0834H14.3333ZM39.4167 71.6667V39.4167H21.5V71.6667H39.4167ZM46.5833 71.6667H64.5V39.4167H46.5833V71.6667ZM71.6667 32.25V25.0834H46.5833V32.25H71.6667Z" fill="#1C1B1F"/>
</g>
</svg>
