<svg width="86" height="86" viewBox="0 0 86 86" fill="none" xmlns="http://www.w3.org/2000/svg">
<mask id="mask0_26_35" style="mask-type:alpha" maskUnits="userSpaceOnUse" x="0" y="0" width="86" height="86">
<rect width="86" height="86" fill="#D9D9D9"/>
</mask>
<g mask="url(#mask0_26_35)">
<path d="M46.5834 62.7083L59.125 50.1666C59.782 49.5097 60.3045 48.7333 60.6927 47.8375C61.0809 46.9416 61.275 45.9861 61.275 44.9708C61.275 42.9402 60.5584 41.2083 59.125 39.775C57.6917 38.3416 55.9597 37.625 53.9292 37.625C52.7945 37.625 51.6747 37.9534 50.5698 38.6104C49.465 39.2673 48.1361 40.3722 46.5834 41.925C44.7917 40.2527 43.3882 39.118 42.3729 38.5208C41.3577 37.9236 40.3125 37.625 39.2375 37.625C37.207 37.625 35.475 38.3416 34.0417 39.775C32.6084 41.2083 31.8917 42.9402 31.8917 44.9708C31.8917 45.9861 32.0858 46.9416 32.474 47.8375C32.8622 48.7333 33.3847 49.5097 34.0417 50.1666L46.5834 62.7083ZM76.6834 51.0625L51.0625 76.6833C50.3459 77.4 49.5396 77.9375 48.6438 78.2958C47.7479 78.6541 46.8521 78.8333 45.9563 78.8333C45.0604 78.8333 44.1646 78.6541 43.2688 78.2958C42.3729 77.9375 41.5667 77.4 40.85 76.6833L9.2271 45.0604C8.57016 44.4034 8.06252 43.642 7.70419 42.776C7.34585 41.91 7.16669 40.9993 7.16669 40.0437V14.3333C7.16669 12.3625 7.86842 10.6753 9.2719 9.27183C10.6754 7.86836 12.3625 7.16663 14.3334 7.16663H40.0438C40.9993 7.16663 41.925 7.36072 42.8209 7.74892C43.7167 8.13711 44.4931 8.65968 45.15 9.31663L76.6834 40.9395C77.4 41.6562 77.9226 42.4625 78.2511 43.3583C78.5795 44.2541 78.7438 45.15 78.7438 46.0458C78.7438 46.9416 78.5795 47.8225 78.2511 48.6885C77.9226 49.5545 77.4 50.3458 76.6834 51.0625ZM45.9563 71.6666L71.5771 46.0458L39.9542 14.3333H14.3334V39.9541L45.9563 71.6666ZM23.2917 28.6666C24.7847 28.6666 26.0538 28.1441 27.099 27.0989C28.1441 26.0538 28.6667 24.7847 28.6667 23.2916C28.6667 21.7986 28.1441 20.5295 27.099 19.4843C26.0538 18.4392 24.7847 17.9166 23.2917 17.9166C21.7986 17.9166 20.5295 18.4392 19.4844 19.4843C18.4393 20.5295 17.9167 21.7986 17.9167 23.2916C17.9167 24.7847 18.4393 26.0538 19.4844 27.0989C20.5295 28.1441 21.7986 28.6666 23.2917 28.6666Z" fill="#1C1B1F"/>
</g>
</svg>
