<svg width="42" height="42" viewBox="0 0 42 42" fill="none" xmlns="http://www.w3.org/2000/svg">
<mask id="mask0_26_35" style="mask-type:alpha" maskUnits="userSpaceOnUse" x="0" y="0" width="42" height="42">
<rect width="42" height="42" fill="#D9D9D9"/>
</mask>
<g mask="url(#mask0_26_35)">
<path d="M22.75 30.625L28.875 24.5C29.1958 24.1792 29.451 23.8 29.6406 23.3625C29.8302 22.925 29.925 22.4583 29.925 21.9625C29.925 20.9708 29.575 20.125 28.875 19.425C28.175 18.725 27.3292 18.375 26.3375 18.375C25.7833 18.375 25.2365 18.5354 24.6969 18.8563C24.1573 19.1771 23.5083 19.7167 22.75 20.475C21.875 19.6583 21.1896 19.1042 20.6938 18.8125C20.1979 18.5208 19.6875 18.375 19.1625 18.375C18.1708 18.375 17.325 18.725 16.625 19.425C15.925 20.125 15.575 20.9708 15.575 21.9625C15.575 22.4583 15.6698 22.925 15.8594 23.3625C16.049 23.8 16.3042 24.1792 16.625 24.5L22.75 30.625ZM37.45 24.9375L24.9375 37.45C24.5875 37.8 24.1938 38.0625 23.7563 38.2375C23.3188 38.4125 22.8813 38.5 22.4438 38.5C22.0063 38.5 21.5688 38.4125 21.1313 38.2375C20.6938 38.0625 20.3 37.8 19.95 37.45L4.50625 22.0063C4.18542 21.6854 3.9375 21.3135 3.7625 20.8906C3.5875 20.4677 3.5 20.0229 3.5 19.5562V7C3.5 6.0375 3.84271 5.21354 4.52813 4.52813C5.21354 3.84271 6.0375 3.5 7 3.5H19.5563C20.0229 3.5 20.475 3.59479 20.9125 3.78438C21.35 3.97396 21.7292 4.22917 22.05 4.55L37.45 19.9937C37.8 20.3438 38.0552 20.7375 38.2156 21.175C38.376 21.6125 38.4563 22.05 38.4563 22.4875C38.4563 22.925 38.376 23.3552 38.2156 23.7781C38.0552 24.201 37.8 24.5875 37.45 24.9375ZM22.4438 35L34.9563 22.4875L19.5125 7H7V19.5125L22.4438 35ZM11.375 14C12.1042 14 12.724 13.7448 13.2344 13.2344C13.7448 12.724 14 12.1042 14 11.375C14 10.6458 13.7448 10.026 13.2344 9.51562C12.724 9.00521 12.1042 8.75 11.375 8.75C10.6458 8.75 10.026 9.00521 9.51563 9.51562C9.00521 10.026 8.75 10.6458 8.75 11.375C8.75 12.1042 9.00521 12.724 9.51563 13.2344C10.026 13.7448 10.6458 14 11.375 14Z" fill="#1C1B1F"/>
</g>
</svg>
