<svg width="35" height="35" viewBox="0 0 35 35" fill="none" xmlns="http://www.w3.org/2000/svg">
<mask id="mask0_29_60" style="mask-type:alpha" maskUnits="userSpaceOnUse" x="0" y="0" width="35" height="35">
<rect width="35" height="35" fill="#D9D9D9"/>
</mask>
<g mask="url(#mask0_29_60)">
<path d="M17.5 32.0834C15.4826 32.0834 13.5868 31.7006 11.8125 30.935C10.0382 30.1693 8.49478 29.1303 7.18228 27.8178C5.86978 26.5053 4.83072 24.9619 4.06509 23.1876C3.29947 21.4133 2.91666 19.5174 2.91666 17.5001C2.91666 15.4827 3.29947 13.5869 4.06509 11.8126C4.83072 10.0383 5.86978 8.49487 7.18228 7.18237C8.49478 5.86987 10.0382 4.83081 11.8125 4.06519C13.5868 3.29956 15.4826 2.91675 17.5 2.91675C19.5173 2.91675 21.4132 3.29956 23.1875 4.06519C24.9618 4.83081 26.5052 5.86987 27.8177 7.18237C29.1302 8.49487 30.1693 10.0383 30.9349 11.8126C31.7005 13.5869 32.0833 15.4827 32.0833 17.5001C32.0833 19.5174 31.7005 21.4133 30.9349 23.1876C30.1693 24.9619 29.1302 26.5053 27.8177 27.8178C26.5052 29.1303 24.9618 30.1693 23.1875 30.935C21.4132 31.7006 19.5173 32.0834 17.5 32.0834ZM17.5 29.1667C20.7569 29.1667 23.5156 28.0365 25.776 25.7761C28.0364 23.5157 29.1667 20.757 29.1667 17.5001C29.1667 14.2431 28.0364 11.4845 25.776 9.22404C23.5156 6.96362 20.7569 5.83341 17.5 5.83341C14.243 5.83341 11.4844 6.96362 9.22395 9.22404C6.96353 11.4845 5.83332 14.2431 5.83332 17.5001C5.83332 20.757 6.96353 23.5157 9.22395 25.7761C11.4844 28.0365 14.243 29.1667 17.5 29.1667Z" fill="#002F87"/>
</g>
</svg>
